<mxfile host="app.diagrams.net" modified="2022-09-06T02:24:14.977Z" agent="5.0 (Windows NT 10.0; Win64; x64) AppleWebKit/537.36 (KHTML, like Gecko) Chrome/104.0.0.0 Safari/537.36" etag="OOOexB9vT2g6OcsaMnbc" version="20.2.8" type="github">
  <diagram id="rNeQ1UuskI7yNzHPdKR6" name="第 1 页">
    <mxGraphModel dx="813" dy="479" grid="1" gridSize="10" guides="1" tooltips="1" connect="1" arrows="1" fold="1" page="1" pageScale="1" pageWidth="827" pageHeight="1169" math="0" shadow="0">
      <root>
        <mxCell id="0" />
        <mxCell id="1" parent="0" />
        <mxCell id="jukRPjuJdzXvGUw80_Yt-12" style="edgeStyle=orthogonalEdgeStyle;rounded=0;orthogonalLoop=1;jettySize=auto;html=1;exitX=1;exitY=0.5;exitDx=0;exitDy=0;entryX=0;entryY=0.5;entryDx=0;entryDy=0;" edge="1" parent="1" source="jukRPjuJdzXvGUw80_Yt-1" target="jukRPjuJdzXvGUw80_Yt-2">
          <mxGeometry relative="1" as="geometry" />
        </mxCell>
        <mxCell id="jukRPjuJdzXvGUw80_Yt-13" style="edgeStyle=orthogonalEdgeStyle;rounded=0;orthogonalLoop=1;jettySize=auto;html=1;entryX=0;entryY=0.5;entryDx=0;entryDy=0;" edge="1" parent="1" source="jukRPjuJdzXvGUw80_Yt-1" target="jukRPjuJdzXvGUw80_Yt-11">
          <mxGeometry relative="1" as="geometry" />
        </mxCell>
        <mxCell id="jukRPjuJdzXvGUw80_Yt-1" value="红外图像预处理" style="rounded=0;whiteSpace=wrap;html=1;" vertex="1" parent="1">
          <mxGeometry x="70" y="310" width="120" height="60" as="geometry" />
        </mxCell>
        <mxCell id="jukRPjuJdzXvGUw80_Yt-18" style="edgeStyle=orthogonalEdgeStyle;rounded=0;orthogonalLoop=1;jettySize=auto;html=1;exitX=1;exitY=0.5;exitDx=0;exitDy=0;entryX=0;entryY=0.5;entryDx=0;entryDy=0;" edge="1" parent="1" source="jukRPjuJdzXvGUw80_Yt-2" target="jukRPjuJdzXvGUw80_Yt-17">
          <mxGeometry relative="1" as="geometry" />
        </mxCell>
        <mxCell id="jukRPjuJdzXvGUw80_Yt-19" value="坐标" style="edgeLabel;html=1;align=center;verticalAlign=middle;resizable=0;points=[];" vertex="1" connectable="0" parent="jukRPjuJdzXvGUw80_Yt-18">
          <mxGeometry x="-0.21" relative="1" as="geometry">
            <mxPoint as="offset" />
          </mxGeometry>
        </mxCell>
        <mxCell id="jukRPjuJdzXvGUw80_Yt-2" value="红外目标检测模型" style="rounded=0;whiteSpace=wrap;html=1;" vertex="1" parent="1">
          <mxGeometry x="250" y="280" width="120" height="60" as="geometry" />
        </mxCell>
        <mxCell id="jukRPjuJdzXvGUw80_Yt-15" style="edgeStyle=orthogonalEdgeStyle;rounded=0;orthogonalLoop=1;jettySize=auto;html=1;exitX=1;exitY=0.5;exitDx=0;exitDy=0;entryX=0;entryY=0.5;entryDx=0;entryDy=0;" edge="1" parent="1" source="jukRPjuJdzXvGUw80_Yt-11" target="jukRPjuJdzXvGUw80_Yt-14">
          <mxGeometry relative="1" as="geometry" />
        </mxCell>
        <mxCell id="jukRPjuJdzXvGUw80_Yt-11" value="图像去噪和图像增强" style="rounded=0;whiteSpace=wrap;html=1;" vertex="1" parent="1">
          <mxGeometry x="250" y="360" width="120" height="60" as="geometry" />
        </mxCell>
        <mxCell id="jukRPjuJdzXvGUw80_Yt-22" style="edgeStyle=orthogonalEdgeStyle;rounded=0;orthogonalLoop=1;jettySize=auto;html=1;exitX=1;exitY=0.5;exitDx=0;exitDy=0;entryX=0;entryY=0.5;entryDx=0;entryDy=0;" edge="1" parent="1" source="jukRPjuJdzXvGUw80_Yt-14" target="jukRPjuJdzXvGUw80_Yt-21">
          <mxGeometry relative="1" as="geometry" />
        </mxCell>
        <mxCell id="jukRPjuJdzXvGUw80_Yt-14" value="红外亮点检测模型" style="rounded=0;whiteSpace=wrap;html=1;" vertex="1" parent="1">
          <mxGeometry x="410" y="360" width="120" height="60" as="geometry" />
        </mxCell>
        <mxCell id="jukRPjuJdzXvGUw80_Yt-16" value="过热点或温升区域" style="rounded=0;whiteSpace=wrap;html=1;" vertex="1" parent="1">
          <mxGeometry x="707" y="320" width="120" height="60" as="geometry" />
        </mxCell>
        <mxCell id="jukRPjuJdzXvGUw80_Yt-23" style="edgeStyle=orthogonalEdgeStyle;rounded=0;orthogonalLoop=1;jettySize=auto;html=1;exitX=1;exitY=0.5;exitDx=0;exitDy=0;entryX=0;entryY=0.5;entryDx=0;entryDy=0;" edge="1" parent="1" source="jukRPjuJdzXvGUw80_Yt-17" target="jukRPjuJdzXvGUw80_Yt-21">
          <mxGeometry relative="1" as="geometry" />
        </mxCell>
        <mxCell id="jukRPjuJdzXvGUw80_Yt-17" value="典型金具目标图像" style="rounded=0;whiteSpace=wrap;html=1;" vertex="1" parent="1">
          <mxGeometry x="410" y="280" width="120" height="60" as="geometry" />
        </mxCell>
        <mxCell id="jukRPjuJdzXvGUw80_Yt-24" style="edgeStyle=orthogonalEdgeStyle;rounded=0;orthogonalLoop=1;jettySize=auto;html=1;exitX=1;exitY=0.5;exitDx=0;exitDy=0;entryX=0;entryY=0.5;entryDx=0;entryDy=0;" edge="1" parent="1" source="jukRPjuJdzXvGUw80_Yt-21" target="jukRPjuJdzXvGUw80_Yt-16">
          <mxGeometry relative="1" as="geometry" />
        </mxCell>
        <mxCell id="jukRPjuJdzXvGUw80_Yt-21" value="过热点位置重合判断" style="rounded=0;whiteSpace=wrap;html=1;" vertex="1" parent="1">
          <mxGeometry x="570" y="320" width="120" height="60" as="geometry" />
        </mxCell>
      </root>
    </mxGraphModel>
  </diagram>
</mxfile>
